<svg width="32" height="32" viewBox="0 0 32 32" fill="none" xmlns="http://www.w3.org/2000/svg">
<circle cx="8.56011" cy="7.72041" r="1.56011" transform="rotate(-90 8.56011 7.72041)" fill="#E7C75E"/>
<circle cx="23.5377" cy="7.72041" r="1.56011" transform="rotate(-90 23.5377 7.72041)" fill="#E7C75E"/>
<circle cx="8.56011" cy="12.7128" r="1.56011" transform="rotate(-90 8.56011 12.7128)" fill="#E7C75E"/>
<circle cx="23.5377" cy="12.7128" r="1.56011" transform="rotate(-90 23.5377 12.7128)" fill="#E7C75E"/>
<circle cx="8.56011" cy="17.7051" r="1.56011" transform="rotate(-90 8.56011 17.7051)" fill="#E7C75E"/>
<circle cx="23.5377" cy="17.7051" r="1.56011" transform="rotate(-90 23.5377 17.7051)" fill="#E7C75E"/>
<circle cx="8.56011" cy="22.6975" r="1.56011" transform="rotate(-90 8.56011 22.6975)" fill="#E7C75E"/>
<circle cx="23.5377" cy="22.6975" r="1.56011" transform="rotate(-90 23.5377 22.6975)" fill="#E7C75E"/>
<circle cx="13.5523" cy="27.6898" r="1.56011" transform="rotate(-90 13.5523 27.6898)" fill="#E7C75E"/>
<circle cx="13.5523" cy="3.56013" r="1.56011" transform="rotate(-90 13.5523 3.56013)" fill="#E7C75E"/>
<circle cx="18.5455" cy="27.6898" r="1.56011" transform="rotate(-90 18.5455 27.6898)" fill="#E7C75E"/>
<circle cx="18.5455" cy="3.56013" r="1.56011" transform="rotate(-90 18.5455 3.56013)" fill="#E7C75E"/>
<rect x="11.9922" y="6.16028" width="8.3206" height="18.3053" rx="4.1603" fill="#E7C75E"/>
</svg>
