<svg width="34" height="32" viewBox="0 0 34 32" fill="none" xmlns="http://www.w3.org/2000/svg">
<circle cx="6.875" cy="6.875" r="1.875" fill="#E7C75E"/>
<circle cx="3.875" cy="10.875" r="1.875" fill="#E7C75E"/>
<circle cx="1.875" cy="17.875" r="1.875" fill="#E7C75E"/>
<circle cx="4.875" cy="23.875" r="1.875" fill="#E7C75E"/>
<circle cx="19.875" cy="6.875" r="1.875" fill="#E7C75E"/>
<circle cx="17.708" cy="12.2917" r="1.875" fill="#E7C75E"/>
<circle cx="14.875" cy="15.875" r="1.875" fill="#E7C75E"/>
<circle cx="17.875" cy="25.875" r="1.875" fill="#E7C75E"/>
<circle cx="12.292" cy="6.875" r="1.875" fill="#E7C75E"/>
<circle cx="8.875" cy="12.875" r="1.875" fill="#E7C75E"/>
<circle cx="9.875" cy="18.875" r="1.875" fill="#E7C75E"/>
<circle cx="12.292" cy="23.125" r="1.875" fill="#E7C75E"/>
<circle cx="17.875" cy="19.875" r="1.875" fill="#E7C75E"/>
<circle cx="23.125" cy="12.2917" r="1.875" fill="#E7C75E"/>
<circle cx="23.125" cy="17.7083" r="1.875" fill="#E7C75E"/>
<circle cx="23.125" cy="23.125" r="1.875" fill="#E7C75E"/>
<circle cx="28.542" cy="6.875" r="1.875" fill="#E7C75E"/>
<circle cx="31.875" cy="13.875" r="1.875" fill="#E7C75E"/>
<circle cx="28.542" cy="17.7083" r="1.875" fill="#E7C75E"/>
<circle cx="28.542" cy="23.125" r="1.875" fill="#E7C75E"/>
</svg>
