<svg width="32" height="32" viewBox="0 0 32 32" fill="none" xmlns="http://www.w3.org/2000/svg">
<circle cx="4.875" cy="7.875" r="1.875" fill="#E7C75E"/>
<circle cx="4.875" cy="13.2917" r="1.875" fill="#E7C75E"/>
<circle cx="4.875" cy="18.7083" r="1.875" fill="#E7C75E"/>
<circle cx="4.875" cy="24.125" r="1.875" fill="#E7C75E"/>
<circle cx="15.708" cy="7.875" r="1.875" fill="#E7C75E"/>
<circle cx="15.708" cy="13.2917" r="1.875" fill="#E7C75E"/>
<circle cx="15.708" cy="18.7083" r="1.875" fill="#E7C75E"/>
<circle cx="15.708" cy="24.125" r="1.875" fill="#E7C75E"/>
<circle cx="10.292" cy="7.875" r="1.875" fill="#E7C75E"/>
<circle cx="10.292" cy="13.2917" r="1.875" fill="#E7C75E"/>
<circle cx="10.292" cy="18.7083" r="1.875" fill="#E7C75E"/>
<circle cx="10.292" cy="24.125" r="1.875" fill="#E7C75E"/>
<circle cx="21.125" cy="7.875" r="1.875" fill="#E7C75E"/>
<circle cx="21.125" cy="13.2917" r="1.875" fill="#E7C75E"/>
<circle cx="21.125" cy="18.7083" r="1.875" fill="#E7C75E"/>
<circle cx="21.125" cy="24.125" r="1.875" fill="#E7C75E"/>
<circle cx="26.542" cy="7.875" r="1.875" fill="#E7C75E"/>
<circle cx="26.542" cy="13.2917" r="1.875" fill="#E7C75E"/>
<circle cx="26.542" cy="18.7083" r="1.875" fill="#E7C75E"/>
<circle cx="26.542" cy="24.125" r="1.875" fill="#E7C75E"/>
</svg>
