<svg width="32" height="32" viewBox="0 0 32 32" fill="none" xmlns="http://www.w3.org/2000/svg">
<circle cx="6.875" cy="3.875" r="1.875" transform="rotate(-90 6.875 3.875)" fill="#E7C75E"/>
<circle cx="24.875" cy="3.875" r="1.875" transform="rotate(-90 24.875 3.875)" fill="#E7C75E"/>
<circle cx="6.875" cy="9.875" r="1.875" transform="rotate(-90 6.875 9.875)" fill="#E7C75E"/>
<circle cx="24.875" cy="9.875" r="1.875" transform="rotate(-90 24.875 9.875)" fill="#E7C75E"/>
<circle cx="6.875" cy="15.875" r="1.875" transform="rotate(-90 6.875 15.875)" fill="#E7C75E"/>
<circle cx="24.875" cy="15.875" r="1.875" transform="rotate(-90 24.875 15.875)" fill="#E7C75E"/>
<circle cx="6.875" cy="21.875" r="1.875" transform="rotate(-90 6.875 21.875)" fill="#E7C75E"/>
<circle cx="24.875" cy="21.875" r="1.875" transform="rotate(-90 24.875 21.875)" fill="#E7C75E"/>
<circle cx="6.875" cy="27.875" r="1.875" transform="rotate(-90 6.875 27.875)" fill="#E7C75E"/>
<circle cx="12.875" cy="27.875" r="1.875" transform="rotate(-90 12.875 27.875)" fill="#E7C75E"/>
<circle cx="18.875" cy="27.875" r="1.875" transform="rotate(-90 18.875 27.875)" fill="#E7C75E"/>
<circle cx="24.875" cy="27.875" r="1.875" transform="rotate(-90 24.875 27.875)" fill="#E7C75E"/>
<rect x="11" y="2" width="10" height="22" fill="#E7C75E"/>
</svg>
