<svg width="31" height="31" viewBox="0 0 31 31" fill="none" xmlns="http://www.w3.org/2000/svg">
<path d="M13.7727 27.5454C21.3791 27.5454 27.5454 21.3791 27.5454 13.7727C27.5454 6.16623 21.3791 0 13.7727 0C6.16623 0 0 6.16623 0 13.7727C0 21.3791 6.16623 27.5454 13.7727 27.5454Z" fill="#292D32"/>
<path d="M30.5568 25.9098C30.0523 24.9773 28.9823 24.4576 27.5454 24.4576C26.4601 24.4576 25.5277 24.9009 24.9774 25.6652C24.4271 26.4295 24.3048 27.4536 24.6411 28.4778C25.2984 30.465 26.4448 30.9083 27.0716 30.9847C27.1633 31 27.255 31 27.362 31C28.0346 31 29.074 30.7096 30.0829 29.1962C30.8931 28.0192 31.0459 26.8422 30.5568 25.9098Z" fill="#292D32"/>
</svg>
