<svg id="Glyph" height="512" viewBox="0 0 64 64" width="512" xmlns="http://www.w3.org/2000/svg"><path d="m7.02 32.618h44.671a.519.519 0 0 0 .524-.524v-.283a.641.641 0 0 0 -.021-.136c-3.95-14.908-17.475-20.806-45.194-19.695a.521.521 0 0 0 -.5.523v19.591a.519.519 0 0 0 .52.524zm2.616-17.067a.524.524 0 0 1 .512-.524c1.154-.026 2.275-.039 3.354-.039 19.216 0 29.762 4.15 34.193 13.456a.524.524 0 0 1 -.473.749h-37.062a.523.523 0 0 1 -.524-.524z"/><path d="m54.081 34.037a.568.568 0 0 0 -.532-.371h-47.049v17.967a.524.524 0 0 0 .524.523h45.715a.505.505 0 0 0 .471-.3 22.737 22.737 0 0 0 .871-17.819zm-34.563 6.606h-6.108a1.98 1.98 0 0 1 0-3.96h6.108a1.98 1.98 0 1 1 0 3.96z"/></svg>