<?xml version="1.0" encoding="iso-8859-1"?>
<!-- Generator: Adobe Illustrator 19.0.0, SVG Export Plug-In . SVG Version: 6.00 Build 0)  -->
<svg version="1.1" id="Capa_1" xmlns="http://www.w3.org/2000/svg" xmlns:xlink="http://www.w3.org/1999/xlink" x="0px" y="0px"
	 viewBox="0 0 496 496" style="enable-background:new 0 0 496 496;" xml:space="preserve">
<g>
	<g>
		<g>
			<path d="M248,0C111.033,0,0,111.033,0,248s111.033,248,248,248s248-111.033,248-248C495.846,111.097,384.903,0.154,248,0z
				 M248,480C119.87,480,16,376.13,16,248S119.87,16,248,16s232,103.87,232,232C479.855,376.07,376.07,479.854,248,480z"/>
			<path d="M384,128c-4.418,0-8,3.582-8,8v104H256V136c0-4.418-3.582-8-8-8s-8,3.582-8,8v104H120V136c0-4.418-3.582-8-8-8
				s-8,3.582-8,8v224c0,4.418,3.582,8,8,8s8-3.582,8-8V256h120v104c0,4.418,3.582,8,8,8s8-3.582,8-8V256h128c4.418,0,8-3.582,8-8
				V136C392,131.582,388.418,128,384,128z"/>
		</g>
	</g>
</g>
<g>
</g>
<g>
</g>
<g>
</g>
<g>
</g>
<g>
</g>
<g>
</g>
<g>
</g>
<g>
</g>
<g>
</g>
<g>
</g>
<g>
</g>
<g>
</g>
<g>
</g>
<g>
</g>
<g>
</g>
</svg>
