<?xml version="1.0" encoding="utf-8"?>
<!-- Generator: Adobe Illustrator 24.1.2, SVG Export Plug-In . SVG Version: 6.00 Build 0)  -->
<svg version="1.1" id="Layer_1" xmlns="http://www.w3.org/2000/svg" xmlns:xlink="http://www.w3.org/1999/xlink" x="0px" y="0px"
	 viewBox="0 0 512 512" style="enable-background:new 0 0 512 512;" xml:space="preserve">
<style type="text/css">
	.st0{fill:#FFFFFF;}
</style>
<g id="Page-1">
	<g id="_x30_09---Suitcase">
		<path id="Shape" class="st0" d="M136.5,460.8v21.3c0,16.5,13.4,29.9,29.9,29.9s29.9-13.4,29.9-29.9v-21.3h119.5v21.3
			c0,16.5,13.4,29.9,29.9,29.9s29.9-13.4,29.9-29.9v-21.3c18.9,0,34.1-15.3,34.1-34.1V196.3c0-33-26.8-59.7-59.7-59.7V87.2
			c5.4-4.8,8.5-11.7,8.5-18.9V25.6c0-14.1-11.5-25.6-25.6-25.6H179.2c-14.1,0-25.6,11.5-25.6,25.6v42.7c0,7.2,3.1,14.1,8.5,18.9
			v49.3c-33,0-59.7,26.8-59.7,59.7v230.4C102.4,445.5,117.7,460.8,136.5,460.8z M179.2,482.1c0,7.1-5.7,12.8-12.8,12.8
			s-12.8-5.7-12.8-12.8v-21.3h25.6V482.1z M358.4,482.1c0,7.1-5.7,12.8-12.8,12.8s-12.8-5.7-12.8-12.8v-21.3h25.6V482.1z
			 M375.5,443.7H136.5c-9.4,0-17.1-7.6-17.1-17.1v-17.1h273.1v17.1C392.5,436.1,384.9,443.7,375.5,443.7z M332.8,136.5h-17.1V93.9
			h17.1V136.5z M213.3,136.5V87.2c5.4-4.8,8.5-11.7,8.5-18.9v-8.5h68.3v8.5c0,7.2,3.1,14.1,8.5,18.9v49.3H213.3z M187.7,208.3
			l17.1,17.1v47.7h-34.1v-47.7L187.7,208.3z M170.7,25.6c0-4.7,3.8-8.5,8.5-8.5h153.6c4.7,0,8.5,3.8,8.5,8.5v42.7
			c0,4.7-3.8,8.5-8.5,8.5h-17.1c-4.7,0-8.5-3.8-8.5-8.5V51.2c0-4.7-3.8-8.5-8.5-8.5h-85.3c-4.7,0-8.5,3.8-8.5,8.5v17.1
			c0,4.7-3.8,8.5-8.5,8.5h-17.1c-4.7,0-8.5-3.8-8.5-8.5V25.6z M179.2,93.9h17.1v42.7h-17.1V93.9z M162.1,153.6h17.1v39.1l-20.6,20.6
			c-3.2,3.2-5,7.5-5,12.1v47.7c0,9.4,7.6,17.1,17.1,17.1h34.1c9.4,0,17.1-7.6,17.1-17.1v-47.7c0-4.5-1.8-8.9-5-12.1l-20.6-20.6
			v-39.1h153.6c23.6,0,42.6,19.1,42.7,42.7v162.1H213.3c-4.7,0-8.5,3.8-8.5,8.5s3.8,8.5,8.5,8.5h179.2v17.1H119.5v-17.1h51.2
			c4.7,0,8.5-3.8,8.5-8.5s-3.8-8.5-8.5-8.5h-51.2V196.3C119.5,172.7,138.6,153.6,162.1,153.6z"/>
	</g>
</g>
</svg>
